<?xml version="1.0" encoding="UTF-8"?>
<svg xmlns="http://www.w3.org/2000/svg" xmlns:xlink="http://www.w3.org/1999/xlink" width="20pt" height="20pt" viewBox="0 0 20 20" version="1.1">
<g id="surface1">
<path style="fill:none;stroke-width:8.125;stroke-linecap:round;stroke-linejoin:round;stroke:rgb(100%,100%,100%);stroke-opacity:1;stroke-miterlimit:4;" d="M 6.527344 4.6875 C 5.894531 4.664062 5.425781 4.839844 5.109375 5.167969 C 2.859375 7.464844 9.914062 18.128906 21 30.023438 C 9.914062 41.917969 2.859375 52.582031 5.109375 54.878906 C 7.359375 57.175781 18.023438 50.109375 29.976562 38.976562 C 41.929688 50.109375 52.640625 57.175781 54.890625 54.878906 C 57.140625 52.582031 50.039062 41.917969 38.953125 30.023438 C 50.039062 18.128906 57.140625 7.453125 54.890625 5.167969 C 52.640625 2.859375 41.929688 9.9375 29.976562 21.058594 C 19.710938 11.507812 10.371094 4.839844 6.527344 4.6875 Z M 6.527344 4.6875 " transform="matrix(0.333333,0,0,0.333333,0,0)"/>
<path style="fill-rule:evenodd;fill:rgb(0%,0%,0%);fill-opacity:1;stroke-width:3.125;stroke-linecap:round;stroke-linejoin:round;stroke:rgb(0%,0%,0%);stroke-opacity:1;stroke-miterlimit:4;" d="M 6.527344 4.6875 C 5.894531 4.664062 5.425781 4.839844 5.109375 5.167969 C 2.859375 7.464844 9.914062 18.128906 21 30.023438 C 9.914062 41.917969 2.859375 52.582031 5.109375 54.878906 C 7.359375 57.175781 18.023438 50.109375 29.976562 38.976562 C 41.929688 50.109375 52.640625 57.175781 54.890625 54.878906 C 57.140625 52.582031 50.039062 41.917969 38.953125 30.023438 C 50.039062 18.128906 57.140625 7.453125 54.890625 5.167969 C 52.640625 2.859375 41.929688 9.9375 29.976562 21.058594 C 19.710938 11.507812 10.371094 4.839844 6.527344 4.6875 Z M 6.527344 4.6875 " transform="matrix(0.333333,0,0,0.333333,0,0)"/>
</g>
</svg>
